<svg width="16" height="16" viewBox="0 0 16 16" fill="none" xmlns="http://www.w3.org/2000/svg">
<path d="M2.66663 14.6667C2.66663 13.2522 3.22853 11.8956 4.22872 10.8954C5.22892 9.89524 6.58547 9.33334 7.99996 9.33334C9.41445 9.33334 10.771 9.89524 11.7712 10.8954C12.7714 11.8956 13.3333 13.2522 13.3333 14.6667H12C12 13.6058 11.5785 12.5884 10.8284 11.8382C10.0782 11.0881 9.06082 10.6667 7.99996 10.6667C6.93909 10.6667 5.92168 11.0881 5.17153 11.8382C4.42139 12.5884 3.99996 13.6058 3.99996 14.6667H2.66663ZM7.99996 8.66667C5.78996 8.66667 3.99996 6.87667 3.99996 4.66667C3.99996 2.45667 5.78996 0.666672 7.99996 0.666672C10.21 0.666672 12 2.45667 12 4.66667C12 6.87667 10.21 8.66667 7.99996 8.66667ZM7.99996 7.33334C9.47329 7.33334 10.6666 6.14001 10.6666 4.66667C10.6666 3.19334 9.47329 2.00001 7.99996 2.00001C6.52663 2.00001 5.33329 3.19334 5.33329 4.66667C5.33329 6.14001 6.52663 7.33334 7.99996 7.33334Z" fill="currentColor"/>
</svg>
